<svg version="1.1" xmlns="http://www.w3.org/2000/svg" xmlns:xlink="http://www.w3.org/1999/xlink" width="243.89676" height="230.69148" viewBox="0,0,243.89676,230.69148"><g transform="translate(-118.05162,-64.65426)"><g data-paper-data="{&quot;isPaintingLayer&quot;:true}" fill-rule="nonzero" stroke-linecap="butt" stroke-linejoin="miter" stroke-miterlimit="10" stroke-dasharray="" stroke-dashoffset="0" style="mix-blend-mode: normal"><path d="M360.94838,180c0,63.15141 -54.15043,114.34574 -120.94838,114.34574c-66.79795,0 -120.94838,-51.19433 -120.94838,-114.34574c0,-63.15141 54.15043,-114.34574 120.94838,-114.34574c66.79795,0 120.94838,51.19433 120.94838,114.34574z" fill="#ffd966" stroke="#000000" stroke-width="2"/><path d="M318.93157,178.4994c0,45.08447 -35.87634,81.63265 -80.13205,81.63265c-44.25571,0 -80.13205,-36.54818 -80.13205,-81.63265c0,-45.08447 35.87634,-81.63265 80.13205,-81.63265c44.25571,0 80.13205,36.54818 80.13205,81.63265z" fill="#ffd966" stroke="#000000" stroke-width="2"/><path d="M283.51741,176.9988c0,27.34903 -21.09583,49.51981 -47.11885,49.51981c-26.02302,0 -47.11885,-22.17077 -47.11885,-49.51981c0,-27.34903 21.09583,-49.51981 47.11885,-49.51981c26.02302,0 47.11885,22.17077 47.11885,49.51981z" fill="#ffd966" stroke="#000000" stroke-width="2"/><path d="M264.30972,175.4982c0,14.91766 -11.42131,27.0108 -25.5102,27.0108c-14.0889,0 -25.5102,-12.09315 -25.5102,-27.0108c0,-14.91766 11.42131,-27.0108 25.5102,-27.0108c14.0889,0 25.5102,12.09315 25.5102,27.0108z" fill="#ffd966" stroke="#000000" stroke-width="2"/><path d="M167.47233,149.48895c0.01303,0.36574 0.03493,0.72398 0.12618,0.9772c0.00276,0.00767 0.00553,0.01533 0.0083,0.02298c0.27275,-0.29389 0.5804,-0.55492 0.91637,-0.77651c-0.35211,-0.06394 -0.70236,-0.14023 -1.05085,-0.22367zM237.82264,96.79771c2.22853,0.54676 4.01395,2.81111 5.29615,4.75827c1.43945,2.18596 0.0762,7.74493 0.35627,10.42433c0.61645,5.89757 0.55844,11.67174 1.72796,17.51931c0.83308,4.16986 1.0291,7.83334 1.04099,12.00448c0.00175,0.61241 1.13802,0.45437 1.69433,0.71044c2.60547,1.19933 5.23442,2.31958 7.80312,3.60144c2.75845,1.37656 4.87338,2.83969 7.29012,4.61761c2.79303,2.05474 6.72919,2.83937 9.73016,4.49931c3.71393,2.0543 7.38218,4.22923 11.17786,6.2321c3.37063,0.70559 7.87318,2.21192 10.05669,5.15378c1.4417,1.94241 3.80911,3.98523 3.46015,6.3789c-0.33916,2.32646 -3.24652,3.42574 -5.10033,4.8717c-2.35958,1.84046 -3.51714,1.3202 -6.21349,2.1213c-2.74469,0.81546 -3.37973,1.87221 -6.4816,2.51803c-1.12738,0.23472 -2.30828,-0.04943 -3.45405,0.06588c-5.41624,0.5451 -10.79415,1.88051 -16.20648,2.40096c-2.33201,0.22425 -5.1517,0.27831 -7.74628,0.17966c1.63271,4.13322 3.18406,8.34667 5.50445,12.02394c2.43664,3.86151 4.804,7.58163 7.20288,11.40456c1.77745,2.8326 3.2987,5.20649 4.50963,8.3835c0.56292,1.4769 2.03276,2.91846 1.63928,4.44924c-0.706,2.74661 -2.10682,5.82926 -4.61934,7.14438c-2.9873,1.56362 -9.46113,-3.22409 -11.78402,-4.9451c-1.68529,-1.26397 -3.40483,-2.4875 -5.11386,-3.71954c-0.94451,0.01515 -1.97359,-0.16706 -3.0865,-0.59081c-0.86668,-0.32999 -1.66505,-1.70437 -2.36337,-3.49699c-0.58046,-0.46452 -1.15349,-0.93679 -1.71708,-1.419c-1.50238,-1.28544 -3.11454,-2.46415 -4.44946,-3.92274c-0.2459,-0.26868 -0.32208,-0.77912 -0.67789,-0.85693c-0.22551,-0.04932 0.02156,0.53651 -0.16489,0.67262c-1.62413,1.18563 -3.51272,2.0073 -5.41531,2.65819c-4.73053,1.61834 -9.41261,3.4263 -14.11503,5.29219c-1.98761,0.78867 -3.39857,2.11716 -5.56657,2.64781c-1.03761,0.25397 -2.15629,-0.16273 -3.20443,0.04354c-2.03796,0.40107 -3.9331,1.37438 -5.96736,1.79384c-7.49071,1.49814 -16.47387,5.08203 -23.62481,1.36995c-3.60343,-1.87055 -6.87449,-3.2933 -6.30081,-8.87449c0.53585,-5.21315 3.54206,-4.34828 6.21357,-6.2565c0.69075,-0.49339 1.10495,-1.31443 1.80072,-1.80072c3.73577,-2.611 8.42276,-3.82263 12.2997,-6.19944c2.73158,-1.67463 2.977,-3.7664 5.09552,-5.88492c0.81786,-0.81786 2.00863,-1.14744 3.01294,-1.72116c1.19637,-1.28826 3.0395,-3.31773 4.20168,-4.20168c0.17155,-0.13048 0.3532,-0.24741 0.54208,-0.35289c-0.36014,-0.26748 -0.71899,-0.55597 -1.05508,-0.7226c-2.50491,-1.24192 -5.06745,-2.36417 -7.61533,-3.51238c-2.43671,-1.09811 -5.18553,-1.35309 -7.66826,-2.34276c-5.12393,-2.04252 -9.46218,-6.4595 -13.76869,-9.68197c-3.37707,-2.52699 -7.01283,-4.80408 -10.40303,-7.36664c-0.66912,-0.66335 -4.13062,-4.04992 -4.49964,-4.62626c-3.73925,-5.83997 -7.05387,-16.59701 1.06031,-20.57713c3.19592,-1.56765 5.45998,-0.06423 8.40851,0.24397c3.95317,0.41321 8.04038,-0.38122 12.0048,0c2.00155,0.19247 4.0016,0.40016 6.0024,0.60024c1.23429,0.12343 2.37765,1.18803 3.5963,0.95651c0.15119,-0.02872 -0.14307,-0.32583 -0.06313,-0.45733c0.51967,-0.85484 1.14893,-1.64203 1.80072,-2.40096c1.17066,-1.36308 2.32016,-2.76614 3.22947,-4.31586c2.50378,-3.35259 4.87527,-7.37629 7.81659,-10.34943c2.77383,-2.80384 5.60171,-5.58874 8.40336,-8.40336c1.48503,-1.4919 3.68845,-3.06368 4.88148,-4.79018c2.0253,-2.93093 4.5015,-5.52292 6.60264,-8.40336c1.80116,-2.4692 2.49042,-4.89489 4.72236,-7.21462c0,0 3.53553,-3.53553 7.07107,0c0.55994,0.55994 0.94252,1.11988 1.18987,1.66577zM197.67407,161.45632c-0.47235,-0.41256 -0.86708,-0.93815 -1.43161,-1.20151c-0.74246,-0.34636 -1.55007,-0.48155 -2.37362,-0.56792c0.78327,0.53871 1.59035,1.03914 2.43571,1.4781c0.46147,0.08838 0.91767,0.18614 1.36952,0.29132zM241.13848,184.15826c-0.21563,0.43965 -0.44264,0.87274 -0.66192,1.29238c0.33144,0.34068 0.60229,0.69741 0.82364,1.07034c0.27122,-0.11858 0.55498,-0.21379 0.84875,-0.28309c-0.33202,-0.69297 -0.66836,-1.3863 -1.01048,-2.07963zM232.56183,193.33341c-0.14743,0.07478 -0.30338,0.15251 -0.46258,0.23091c-0.09633,0.12135 -0.19206,0.24294 -0.28706,0.36452c0.24562,-0.12692 0.49083,-0.25434 0.73552,-0.38239c0.00437,-0.07136 0.00907,-0.14249 0.01412,-0.21305zM233.91233,117.86136c-0.38183,0.69881 -0.77527,1.38068 -1.18061,2.04812c0.51348,0.22913 0.98122,0.54229 1.38576,0.922c-0.07078,-0.98903 -0.13674,-1.97884 -0.20514,-2.97012zM197.49,149.87665c-0.08805,0.06249 -0.1761,0.12276 -0.26412,0.1807c0.0878,0.02396 0.17533,0.04828 0.26258,0.07298c0.0013,-0.08438 0.00175,-0.16895 0.00154,-0.25368zM219.77725,165.09931c0.33933,-0.02554 0.67959,-0.07729 1.01692,-0.07844c-0.02798,-0.11349 -0.05136,-0.22904 -0.07053,-0.34639c-0.30195,0.15457 -0.6173,0.29646 -0.9464,0.42484zM212.488,165.0446c-0.01524,0.00268 -0.03047,0.00534 -0.0457,0.00798c0.01624,0.00102 0.03248,0.00202 0.04874,0.003c-0.00104,-0.00365 -0.00205,-0.00731 -0.00304,-0.01097z" fill="#fffd00" stroke="none" stroke-width="0.5"/><path d="M225.89436,159.59184c0,6.79582 -5.37473,12.30492 -12.0048,12.30492c-6.63007,0 -12.0048,-5.5091 -12.0048,-12.30492c0,-6.79582 5.37473,-12.30492 12.0048,-12.30492c6.63007,0 12.0048,5.5091 12.0048,12.30492z" fill="none" stroke="#000000" stroke-width="2"/><path d="M260.70828,164.994c0,6.46432 -5.24036,11.70468 -11.70468,11.70468c-6.46432,0 -11.70468,-5.24036 -11.70468,-11.70468c0,-6.46432 5.24036,-11.70468 11.70468,-11.70468c6.46432,0 11.70468,5.24036 11.70468,11.70468z" fill="none" stroke="#000000" stroke-width="2"/><path d="M245.7518,183.90156c0,1.25 -1.25,1.25 -1.25,1.25l-0.08245,-0.69098c-1.39409,2.54853 -3.6323,2.4593 -5.78931,4.05648c-0.52973,0.39225 -0.83786,1.10451 -1.45301,1.34128c-2.45874,0.94634 -7.04329,0.1003 -9.68218,0.07901c-3.6463,-1.21543 -7.79305,-1.04562 -11.49153,-1.81802c-1.75008,-0.36549 -1.79829,0.68088 -3.7926,-0.06171c-0.53034,-0.19747 -0.676,-0.98793 -1.20048,-1.20048c-0.49761,-0.20165 -1.08376,0.1704 -1.60956,0.06171c-2.10331,-0.43478 -3.52655,-1.98388 -4.79837,-3.33388c-0.86182,-0.91479 -2.58842,-1.40503 -3.60144,-2.40096c0,0 -0.88388,-0.88388 0,-1.76777c0.88388,-0.88388 1.76777,0 1.76777,0c1.12258,1.14705 2.49547,1.34219 3.60144,2.40096c1.0613,1.016 1.82412,2.32496 3.60499,2.66852c0.65225,0.12583 1.37414,-0.18253 1.99188,0.06171c0.52627,0.20808 0.68214,0.97338 1.20048,1.20048c1.04138,0.45626 2.29387,-0.27685 3.41028,-0.06171c3.60759,0.69519 7.76151,0.59806 11.3176,1.78342c2.10407,-0.02122 6.4629,0.87012 8.32502,0.07901c0.89419,-0.37989 1.45376,-1.32456 2.3203,-1.7639c1.34518,-0.68203 3.05306,-1.03197 3.64266,-2.44218l2.31851,-0.69098c0,0 1.25,0 1.25,1.25z" fill="#000000" stroke="none" stroke-width="0.5"/></g></g></svg>